<svg width="137" height="86" viewBox="0 0 137 86" fill="none" xmlns="http://www.w3.org/2000/svg">
<circle cx="3" cy="18" r="3" fill="#21FBCC" fill-opacity="0.44"/>
<circle cx="16" cy="78" r="3" fill="#21FBCC" fill-opacity="0.44"/>
<circle cx="118" cy="50" r="3" fill="#21FBCC" fill-opacity="0.44"/>
<circle cx="5" cy="52" r="5" fill="#21FBCC" fill-opacity="0.44"/>
<circle cx="130.5" cy="36.5" r="6.5" fill="#21FBCC" fill-opacity="0.44"/>
<path d="M26 20C26 8.9543 34.9543 0 46 0H91C102.046 0 111 8.95431 111 20V86H46C34.9543 86 26 77.0457 26 66V20Z" fill="#21FBCC" fill-opacity="0.12"/>
<g clip-path="url(#clip0_645_6358)">
<path d="M93.3561 20.8453C92.9794 20.308 92.3414 20.0659 91.717 20.1587C91.6932 20.153 91.6695 20.1428 91.6457 20.1394L66.074 16.386C65.7946 16.3441 65.5095 16.3747 65.2437 16.4719L44.7625 23.9789C44.7535 23.9822 44.7456 23.9879 44.7365 23.9913C44.715 24.0003 44.6947 24.0139 44.672 24.0218C44.5601 24.0716 44.456 24.1304 44.3598 24.1994C44.3304 24.2209 44.3021 24.2424 44.2727 24.2662C44.1675 24.3522 44.0714 24.4461 43.991 24.5535C43.9865 24.5603 43.9797 24.5637 43.9752 24.5705L35.3269 36.401C34.9954 36.8546 34.9094 37.4451 35.0984 37.9746C35.2873 38.5051 35.7273 38.9056 36.2726 39.0458L43.7772 40.9837V59.5371C43.7772 60.2826 44.2648 60.9421 44.9786 61.1605L72.4565 69.5565C72.4655 69.5611 72.4757 69.5577 72.4847 69.5622C72.6318 69.6029 72.7856 69.6289 72.9395 69.6301C72.9429 69.6301 72.9474 69.6323 72.9519 69.6323H72.9531C73.1148 69.6323 73.2732 69.6029 73.4316 69.5565C73.4814 69.5407 73.5277 69.5192 73.5786 69.4977C73.6454 69.4728 73.711 69.4547 73.7766 69.4208L93.4941 58.4783C94.0337 58.1785 94.3675 57.6106 94.3675 56.9941V38.444L101.037 35.2426C101.486 35.0277 101.818 34.6238 101.945 34.1419C102.07 33.6589 101.978 33.1464 101.692 32.738L93.3561 20.8453ZM66.0072 19.8068L85.9669 22.7367L72.7268 28.893L51.7604 25.0298L66.0072 19.8068ZM46.0872 27.4348L70.1114 31.8625L63.0502 42.4554L39.543 36.3863L46.0872 27.4348ZM47.171 58.2815V41.8592L63.3681 46.0414C63.5095 46.0765 63.6509 46.0957 63.7923 46.0957C64.35 46.0957 64.8839 45.8197 65.2041 45.3401L71.2551 36.2641V65.6402L47.171 58.2815ZM90.9726 55.9941L74.6477 65.0519V38.2495L77.6285 44.5833C77.8219 44.9916 78.1704 45.3084 78.5946 45.4577C78.779 45.5256 78.9713 45.5561 79.1625 45.5561C79.4147 45.5561 79.6647 45.4996 79.8966 45.391L90.9703 40.0764L90.9726 55.9941ZM79.9724 41.5911L75.2133 31.4801L91.3923 23.9574L97.7657 33.0491L79.9724 41.5911Z" fill="#21FBCC"/>
</g>
<defs>
<clipPath id="clip0_645_6358">
<rect width="67" height="67" fill="white" transform="translate(35 9.5)"/>
</clipPath>
</defs>
</svg>
