<svg width="28" height="28" viewBox="0 0 28 28" fill="none" xmlns="http://www.w3.org/2000/svg">
<path d="M15.0974 17.1159H11.7686L11.297 5.6001H15.569L15.0974 17.1159ZM13.433 18.9191C14.108 18.9191 14.649 19.0827 15.0558 19.4099C15.4719 19.7371 15.68 20.1555 15.68 20.6653C15.68 21.1675 15.4719 21.5822 15.0558 21.9093C14.649 22.2365 14.108 22.4001 13.433 22.4001C12.7673 22.4001 12.2263 22.2365 11.8102 21.9093C11.4034 21.5822 11.2 21.1675 11.2 20.6653C11.2 20.1631 11.4034 19.7485 11.8102 19.4213C12.2263 19.0865 12.7673 18.9191 13.433 18.9191Z" fill="#979797"/>
<circle cx="14" cy="14" r="13.2" stroke="#979797" stroke-width="1.6"/>
</svg>
