<svg width="28" height="28" viewBox="0 0 28 28" fill="none" xmlns="http://www.w3.org/2000/svg">
<mask id="path-1-inside-1_645_6677" fill="white">
<path d="M3.13127e-06 14C3.80722e-06 6.26801 6.26802 7.47816e-09 14 6.8343e-07C21.732 1.35938e-06 28 6.26801 28 14C28 21.732 21.732 28 14 28C6.26801 28 2.45532e-06 21.732 3.13127e-06 14Z"/>
</mask>
<path d="M14.5657 5.52127C14.2533 5.20885 13.7467 5.20885 13.4343 5.52127L8.34315 10.6124C8.03073 10.9249 8.03073 11.4314 8.34315 11.7438C8.65557 12.0562 9.1621 12.0562 9.47452 11.7438L14 7.21833L18.5255 11.7438C18.8379 12.0562 19.3444 12.0562 19.6569 11.7438C19.9693 11.4314 19.9693 10.9249 19.6569 10.6124L14.5657 5.52127ZM14.8 21.913L14.8 6.08696L13.2 6.08696L13.2 21.913L14.8 21.913ZM1.6 14C1.6 7.15167 7.15167 1.6 14 1.6L14 -1.6C5.38436 -1.6 -1.6 5.38436 -1.6 14L1.6 14ZM14 1.6C20.8483 1.6 26.4 7.15167 26.4 14L29.6 14C29.6 5.38436 22.6156 -1.6 14 -1.6L14 1.6ZM26.4 14C26.4 20.8483 20.8483 26.4 14 26.4L14 29.6C22.6156 29.6 29.6 22.6156 29.6 14L26.4 14ZM14 26.4C7.15167 26.4 1.6 20.8483 1.6 14L-1.6 14C-1.6 22.6156 5.38436 29.6 14 29.6L14 26.4Z" fill="#C62828" mask="url(#path-1-inside-1_645_6677)"/>
</svg>
